<svg xmlns="http://www.w3.org/2000/svg" version="1.1" xmlns:xlink="http://www.w3.org/1999/xlink" xmlns:svgjs="http://svgjs.dev/svgjs" width="1440" height="560" preserveAspectRatio="none" viewBox="0 0 1440 560"><g mask="url(&quot;#SvgjsMask1038&quot;)" fill="none"><rect width="1440" height="560" x="0" y="0" fill="rgba(0, 0, 0, 1)"></rect><path d="M -760.0579862077816,244 C -664.06,267 -472.06,388.2 -280.0579862077816,359 C -88.06,329.8 7.94,100.4 199.9420137922184,98 C 391.94,95.6 487.94,347.4 679.9420137922184,347 C 871.94,346.6 1007.93,86.2 1159.9420137922184,96 C 1311.95,105.8 1383.99,336 1440,396" stroke="rgba(255, 78, 205, 0.5)" stroke-width="2"></path><path d="M -156.32702580429293,276 C -60.33,313.8 131.67,465.6 323.67297419570707,465 C 515.67,464.4 611.67,275.6 803.6729741957071,273 C 995.67,270.4 1091.67,470.2 1283.672974195707,452 C 1475.67,433.8 1732.41,208.8 1763.672974195707,182 C 1794.94,155.2 1504.73,290.8 1440,318" stroke="rgba(255, 78, 205, 0.5)" stroke-width="2"></path></g><defs><mask id="SvgjsMask1038"><rect width="1440" height="560" fill="#ffffff"></rect></mask></defs></svg>